<svg xmlns="http://www.w3.org/2000/svg" width="16.135" height="16.135" viewBox="0 0 16.135 16.135">
  <defs>
    <style>
      .cls-1 {
        fill: #ececec;
      }
    </style>
  </defs>
  <path id="exit" class="cls-1" d="M18.558,14.89h0L13.663,10,18.558,5.1h0a.505.505,0,0,0,0-.713L16.246,2.075a.506.506,0,0,0-.713,0h0L10.638,6.97,5.743,2.075h0a.505.505,0,0,0-.713,0L2.718,4.388a.505.505,0,0,0,0,.713h0L7.613,10,2.718,14.89h0a.505.505,0,0,0,0,.713L5.03,17.916a.505.505,0,0,0,.713,0h0l4.895-4.895,4.895,4.895h0a.505.505,0,0,0,.713,0L18.558,15.6a.505.505,0,0,0,0-.713Z" transform="translate(-2.571 -1.928)"/>
</svg>
