<svg xmlns="http://www.w3.org/2000/svg" width="18.218" height="19.005" viewBox="0 0 18.218 19.005">
  <path id="github" d="M13.035,19.005H6.473v-.046l0-.286v-.055c0-.58-.011-1.66-.011-2.4h0A7.48,7.48,0,0,1,5.1,16.35c-1.168,0-2.657-.3-3.119-1.7-.006-.015-.627-1.549-1.469-1.934h0c-.059-.041-.576-.411-.506-.637.036-.117.223-.176.556-.176H.6a2.589,2.589,0,0,1,.748.21,2.752,2.752,0,0,1,1.291,1.153A2.931,2.931,0,0,0,3.747,14.42a2.486,2.486,0,0,0,1.218.3,3.782,3.782,0,0,0,1.525-.355,2.974,2.974,0,0,1,.846-1.781C4.554,12.278,1.4,11.928,1.4,6.747A4.012,4.012,0,0,1,2.649,3.634,4.989,4.989,0,0,1,2.786.045,1.1,1.1,0,0,1,3.11,0a5.3,5.3,0,0,1,2.1.73c.674.364,1.2.726,1.222.741a12.486,12.486,0,0,1,6.638,0C13.157,1.412,15.21,0,16.389,0a1.094,1.094,0,0,1,.328.045,5,5,0,0,1,.138,3.589,4.123,4.123,0,0,1,1.363,3.113c0,5.156-3.223,5.519-6.066,5.84a3.07,3.07,0,0,1,.9,2.452c0,1.089-.006,2.332-.011,3.239v.262l0,.309V19Z" transform="translate(0)" fill="#101927"/>
</svg>
