<svg xmlns="http://www.w3.org/2000/svg" width="20.751" height="20.751" viewBox="0 0 20.751 20.751">
  <defs>
    <style>
      .cls-1 {
        fill: #2b303a;
      }
    </style>
  </defs>
  <path id="linkedin" class="cls-1" d="M4.645,20.752H.343V6.9h4.3ZM2.492,5.008A2.5,2.5,0,1,1,4.983,2.493,2.513,2.513,0,0,1,2.492,5.008ZM20.747,20.752H16.454V14.008c0-1.607-.032-3.669-2.237-3.669-2.237,0-2.58,1.746-2.58,3.553v6.86H7.34V6.9h4.126v1.89h.06A4.521,4.521,0,0,1,15.6,6.55c4.354,0,5.155,2.867,5.155,6.591v7.61Z" transform="translate(0 -0.001)"/>
</svg>
