<svg xmlns="http://www.w3.org/2000/svg" width="595.229" height="57.646" viewBox="0 0 595.229 57.646">
  <g id="logo_large" transform="translate(-597.2 -76.354)">
    <path id="Path_7" data-name="Path 7" d="M24.518,0h-7.3q-6.478,0-10-3.444T3.69-13.366V-28.454q0-6.478,3.526-9.922t10-3.444h7.3q6.4,0,9.963,3.485t3.567,9.881v15.088q0,6.4-3.567,9.881T24.518,0Zm-5.74-8.938H22.96A5.292,5.292,0,0,0,26.691-10a5,5,0,0,0,1.107-3.69V-28.126a5,5,0,0,0-1.107-3.69,5.292,5.292,0,0,0-3.731-1.066H18.778a5.131,5.131,0,0,0-3.69,1.066,5.131,5.131,0,0,0-1.066,3.69v14.432A5.131,5.131,0,0,0,15.088-10,5.131,5.131,0,0,0,18.778-8.938ZM61.418-41.82h6.56a1.908,1.908,0,0,1,1.353.369A1.766,1.766,0,0,1,69.7-40.18v5.658A1.522,1.522,0,0,1,67.978-32.8h-6.56a.8.8,0,0,0-.9.9V-1.722Q60.516,0,58.712,0H51.824A1.522,1.522,0,0,1,50.1-1.722V-31.9q0-.9-.984-.9H45.346a1.522,1.522,0,0,1-1.722-1.722V-40.18a1.748,1.748,0,0,1,.369-1.312,2.079,2.079,0,0,1,1.353-.328h3.772q.984,0,.984-.9V-44.28q0-6.478,3.4-9.922t9.881-3.444H68.06a1.748,1.748,0,0,1,1.312.369,1.918,1.918,0,0,1,.328,1.271v5.658q0,1.722-1.64,1.722H65.026q-2.624,0-3.567,1.107a5.778,5.778,0,0,0-.943,3.731v1.066A.8.8,0,0,0,61.418-41.82ZM110.454,0h-6.888q-1.8,0-1.8-1.722V-42.8a.8.8,0,0,0-.9-.9H91.512a1.522,1.522,0,0,1-1.722-1.722V-51a1.522,1.522,0,0,1,1.722-1.722h31A1.522,1.522,0,0,1,124.23-51v5.576a1.522,1.522,0,0,1-1.722,1.722H113.16q-.984,0-.984.9V-1.722A1.522,1.522,0,0,1,110.454,0Zm27.88,0h-6.97a1.522,1.522,0,0,1-1.722-1.722v-54.2a1.522,1.522,0,0,1,1.722-1.722h6.97a1.522,1.522,0,0,1,1.722,1.722v18.532h.328q1.8-4.428,8.036-4.428h2.624q12.874,0,12.874,13.366V-1.722q0,1.722-1.8,1.722h-6.888A1.522,1.522,0,0,1,153.5-1.722v-26.24a5.159,5.159,0,0,0-1.107-3.731,5.159,5.159,0,0,0-3.731-1.107h-2.952q-5.658,0-5.658,6.232V-1.722A1.522,1.522,0,0,1,138.334,0ZM203.36,0H185.238q-6.478,0-10-3.444t-3.526-9.922V-28.454q0-6.478,3.526-9.922t10-3.444h6.478q6.478,0,10,3.444t3.526,9.922V-18.04a1.522,1.522,0,0,1-1.722,1.722H182.942q-.984,0-.984.9v1.8a5.024,5.024,0,0,0,1.107,3.649A5.159,5.159,0,0,0,186.8-8.856H203.36q1.722,0,1.722,1.8V-1.64a1.766,1.766,0,0,1-.369,1.271A1.908,1.908,0,0,1,203.36,0ZM182.942-23.288h11.152a.8.8,0,0,0,.9-.9v-3.936a5.131,5.131,0,0,0-1.066-3.69,5.131,5.131,0,0,0-3.69-1.066H186.8a5.131,5.131,0,0,0-3.69,1.066,5.131,5.131,0,0,0-1.066,3.69v3.936A.8.8,0,0,0,182.942-23.288ZM243.212-9.02h8.938a5.159,5.159,0,0,0,3.731-1.107,5.159,5.159,0,0,0,1.107-3.731v-25.01a5.159,5.159,0,0,0-1.107-3.731,5.159,5.159,0,0,0-3.731-1.107h-8.938a.8.8,0,0,0-.9.9V-9.922A.8.8,0,0,0,243.212-9.02ZM231.9-1.722V-51a1.522,1.522,0,0,1,1.722-1.722h20.254q6.4,0,9.963,3.485T267.4-39.36v25.994q0,6.4-3.567,9.881T253.872,0H233.618A1.522,1.522,0,0,1,231.9-1.722ZM307.254,0H289.132q-6.478,0-10-3.444T275.6-13.366V-28.454q0-6.478,3.526-9.922t10-3.444h6.478q6.478,0,10,3.444t3.526,9.922V-18.04a1.522,1.522,0,0,1-1.722,1.722H286.836q-.984,0-.984.9v1.8a5.024,5.024,0,0,0,1.107,3.649,5.159,5.159,0,0,0,3.731,1.107h16.564q1.722,0,1.722,1.8V-1.64a1.766,1.766,0,0,1-.369,1.271A1.908,1.908,0,0,1,307.254,0ZM286.836-23.288h11.152a.8.8,0,0,0,.9-.9v-3.936a5.131,5.131,0,0,0-1.066-3.69,5.131,5.131,0,0,0-3.69-1.066H290.69A5.131,5.131,0,0,0,287-31.816a5.131,5.131,0,0,0-1.066,3.69v3.936A.8.8,0,0,0,286.836-23.288Zm28.29-18.532h7.216A1.852,1.852,0,0,1,324.31-40.1l7.052,30.832h.574L338.824-40.1a1.9,1.9,0,0,1,2.05-1.722h7.216q1.722,0,1.23,1.722L338.988-1.8A2.009,2.009,0,0,1,336.774,0H326.36a2.145,2.145,0,0,1-2.214-1.8L313.9-40.1Q313.4-41.82,315.126-41.82Z" transform="translate(843 134)" fill="#ececec"/>
    <path id="Path_6" data-name="Path 6" d="M13.68,0H6.88A1.485,1.485,0,0,1,5.2-1.68V-49.76a1.485,1.485,0,0,1,1.68-1.68H25.92q6.24,0,9.76,3.44t3.52,9.68v6.24q0,9.04-7.12,12v.32L40.64-1.92Q41.36,0,39.28,0H32.8a4.958,4.958,0,0,1-2.08-.32,2.378,2.378,0,0,1-1.04-1.36l-8-17.28H16.32q-.96,0-.96.88v16.4A1.485,1.485,0,0,1,13.68,0Zm2.56-27.12h7.84a5.506,5.506,0,0,0,3.76-1.08,4.472,4.472,0,0,0,1.2-3.48v-6.24a4.726,4.726,0,0,0-1.2-3.6,5.371,5.371,0,0,0-3.76-1.12H16.24a.778.778,0,0,0-.88.88V-28A.778.778,0,0,0,16.24-27.12ZM78.24,0H60.56Q54.24,0,50.8-3.36t-3.44-9.68V-27.76q0-6.32,3.44-9.68t9.76-3.36h6.32q6.32,0,9.76,3.36t3.44,9.68V-17.6a1.485,1.485,0,0,1-1.68,1.68H58.32q-.96,0-.96.88v1.76a4.9,4.9,0,0,0,1.08,3.56,5.033,5.033,0,0,0,3.64,1.08H78.24q1.68,0,1.68,1.76V-1.6a1.722,1.722,0,0,1-.36,1.24A1.862,1.862,0,0,1,78.24,0ZM58.32-22.72H69.2a.778.778,0,0,0,.88-.88v-3.84a5.006,5.006,0,0,0-1.04-3.6,5.006,5.006,0,0,0-3.6-1.04H62.08a5.006,5.006,0,0,0-3.6,1.04,5.006,5.006,0,0,0-1.04,3.6v3.84A.778.778,0,0,0,58.32-22.72ZM88.56-32h-3.2a2.028,2.028,0,0,1-1.32-.32,1.706,1.706,0,0,1-.36-1.28v-5.52a1.485,1.485,0,0,1,1.68-1.68h3.2a.778.778,0,0,0,.88-.88v-7.6q0-1.68,1.76-1.68h6.72a1.485,1.485,0,0,1,1.68,1.68v7.6q0,.88.96.88h6.24a1.485,1.485,0,0,1,1.68,1.68v5.52a1.722,1.722,0,0,1-.36,1.24,1.862,1.862,0,0,1-1.32.36h-6.24q-.96,0-.96.88v17.68a4.787,4.787,0,0,0,1.12,3.56A5.187,5.187,0,0,0,104.4-8.8h3.2a1.485,1.485,0,0,1,1.68,1.68V-1.6a1.722,1.722,0,0,1-.36,1.24A1.862,1.862,0,0,1,107.6,0h-4.88q-6.32,0-9.8-3.36t-3.48-9.6V-31.12A.778.778,0,0,0,88.56-32ZM130.64,0H128q-6.16,0-9.32-3.36t-3.16-9.68V-39.12a1.485,1.485,0,0,1,1.68-1.68H124a1.485,1.485,0,0,1,1.68,1.68v25.6a5.033,5.033,0,0,0,1.08,3.64,4.9,4.9,0,0,0,3.56,1.08h2.96q5.52,0,5.52-6.08V-39.12a1.485,1.485,0,0,1,1.68-1.68h6.72q1.76,0,1.76,1.68V-1.68Q148.96,0,147.2,0h-6.72a1.485,1.485,0,0,1-1.68-1.68V-4.32h-.32a6.066,6.066,0,0,1-3.12,3.24A10.734,10.734,0,0,1,130.64,0Zm35.6,0h-6.8a1.485,1.485,0,0,1-1.68-1.68V-39.12a1.485,1.485,0,0,1,1.68-1.68h6.8a1.485,1.485,0,0,1,1.68,1.68v2.72h.32a6.23,6.23,0,0,1,3.12-3.28,10.418,10.418,0,0,1,4.72-1.12h2.88q1.6,0,1.6,1.68v5.52a1.862,1.862,0,0,1-.36,1.32,1.519,1.519,0,0,1-1.24.28h-5.52q-5.52,0-5.52,6.24V-1.68A1.485,1.485,0,0,1,166.24,0Zm27.92,0h-6.8a1.485,1.485,0,0,1-1.68-1.68V-39.12a1.485,1.485,0,0,1,1.68-1.68h6.8a1.485,1.485,0,0,1,1.68,1.68v2.64h.32q1.76-4.32,7.84-4.32h2.56q12.56,0,12.56,13.04V-1.68q0,1.68-1.76,1.68h-6.72a1.485,1.485,0,0,1-1.68-1.68v-25.6a5.033,5.033,0,0,0-1.08-3.64A5.033,5.033,0,0,0,204.24-32h-2.88q-5.52,0-5.52,6.08V-1.68A1.485,1.485,0,0,1,194.16,0Z" transform="translate(592 133)" fill="#ececec"/>
    <path id="Path_5" data-name="Path 5" d="M13.68,0H6.88A1.485,1.485,0,0,1,5.2-1.68V-49.76a1.485,1.485,0,0,1,1.68-1.68H25.92q6.24,0,9.76,3.44t3.52,9.68v6.24q0,9.04-7.12,12v.32L40.64-1.92Q41.36,0,39.28,0H32.8a4.958,4.958,0,0,1-2.08-.32,2.378,2.378,0,0,1-1.04-1.36l-8-17.28H16.32q-.96,0-.96.88v16.4A1.485,1.485,0,0,1,13.68,0Zm2.56-27.12h7.84a5.506,5.506,0,0,0,3.76-1.08,4.472,4.472,0,0,0,1.2-3.48v-6.24a4.726,4.726,0,0,0-1.2-3.6,5.371,5.371,0,0,0-3.76-1.12H16.24a.778.778,0,0,0-.88.88V-28A.778.778,0,0,0,16.24-27.12ZM78.24,0H60.56Q54.24,0,50.8-3.36t-3.44-9.68V-27.76q0-6.32,3.44-9.68t9.76-3.36h6.32q6.32,0,9.76,3.36t3.44,9.68V-17.6a1.485,1.485,0,0,1-1.68,1.68H58.32q-.96,0-.96.88v1.76a4.9,4.9,0,0,0,1.08,3.56,5.033,5.033,0,0,0,3.64,1.08H78.24q1.68,0,1.68,1.76V-1.6a1.722,1.722,0,0,1-.36,1.24A1.862,1.862,0,0,1,78.24,0ZM58.32-22.72H69.2a.778.778,0,0,0,.88-.88v-3.84a5.006,5.006,0,0,0-1.04-3.6,5.006,5.006,0,0,0-3.6-1.04H62.08a5.006,5.006,0,0,0-3.6,1.04,5.006,5.006,0,0,0-1.04,3.6v3.84A.778.778,0,0,0,58.32-22.72ZM88.56-32h-3.2a2.028,2.028,0,0,1-1.32-.32,1.706,1.706,0,0,1-.36-1.28v-5.52a1.485,1.485,0,0,1,1.68-1.68h3.2a.778.778,0,0,0,.88-.88v-7.6q0-1.68,1.76-1.68h6.72a1.485,1.485,0,0,1,1.68,1.68v7.6q0,.88.96.88h6.24a1.485,1.485,0,0,1,1.68,1.68v5.52a1.722,1.722,0,0,1-.36,1.24,1.862,1.862,0,0,1-1.32.36h-6.24q-.96,0-.96.88v17.68a4.787,4.787,0,0,0,1.12,3.56A5.187,5.187,0,0,0,104.4-8.8h3.2a1.485,1.485,0,0,1,1.68,1.68V-1.6a1.722,1.722,0,0,1-.36,1.24A1.862,1.862,0,0,1,107.6,0h-4.88q-6.32,0-9.8-3.36t-3.48-9.6V-31.12A.778.778,0,0,0,88.56-32ZM130.64,0H128q-6.16,0-9.32-3.36t-3.16-9.68V-39.12a1.485,1.485,0,0,1,1.68-1.68H124a1.485,1.485,0,0,1,1.68,1.68v25.6a5.033,5.033,0,0,0,1.08,3.64,4.9,4.9,0,0,0,3.56,1.08h2.96q5.52,0,5.52-6.08V-39.12a1.485,1.485,0,0,1,1.68-1.68h6.72q1.76,0,1.76,1.68V-1.68Q148.96,0,147.2,0h-6.72a1.485,1.485,0,0,1-1.68-1.68V-4.32h-.32a6.066,6.066,0,0,1-3.12,3.24A10.734,10.734,0,0,1,130.64,0Zm35.6,0h-6.8a1.485,1.485,0,0,1-1.68-1.68V-39.12a1.485,1.485,0,0,1,1.68-1.68h6.8a1.485,1.485,0,0,1,1.68,1.68v2.72h.32a6.23,6.23,0,0,1,3.12-3.28,10.418,10.418,0,0,1,4.72-1.12h2.88q1.6,0,1.6,1.68v5.52a1.862,1.862,0,0,1-.36,1.32,1.519,1.519,0,0,1-1.24.28h-5.52q-5.52,0-5.52,6.24V-1.68A1.485,1.485,0,0,1,166.24,0Zm27.92,0h-6.8a1.485,1.485,0,0,1-1.68-1.68V-39.12a1.485,1.485,0,0,1,1.68-1.68h6.8a1.485,1.485,0,0,1,1.68,1.68v2.64h.32q1.76-4.32,7.84-4.32h2.56q12.56,0,12.56,13.04V-1.68q0,1.68-1.76,1.68h-6.72a1.485,1.485,0,0,1-1.68-1.68v-25.6a5.033,5.033,0,0,0-1.08-3.64A5.033,5.033,0,0,0,204.24-32h-2.88q-5.52,0-5.52,6.08V-1.68A1.485,1.485,0,0,1,194.16,0Z" transform="translate(596 134)" fill="#79beee"/>
  </g>
</svg>
