<svg xmlns="http://www.w3.org/2000/svg" width="20" height="45" viewBox="0 0 20 45">
  <g id="logo_small" transform="translate(-192.748 -118.839)">
    <text id="R" transform="translate(192.748 151.839)" fill="#ececec" font-size="35" font-family="Rajdhani-Bold, Rajdhani" font-weight="700"><tspan x="0" y="0">R</tspan></text>
    <path id="Path_4" data-name="Path 4" d="M5.985,0H3.01a.65.65,0,0,1-.735-.735V-21.77a.65.65,0,0,1,.735-.735h8.33A5.849,5.849,0,0,1,15.61-21a5.651,5.651,0,0,1,1.54,4.235v2.73q0,3.955-3.115,5.25v.14L17.78-.84q.315.84-.595.84H14.35a2.169,2.169,0,0,1-.91-.14,1.041,1.041,0,0,1-.455-.6L9.485-8.3H7.14q-.42,0-.42.385V-.735A.65.65,0,0,1,5.985,0Zm1.12-11.865h3.43a2.409,2.409,0,0,0,1.645-.472A1.956,1.956,0,0,0,12.7-13.86v-2.73a2.068,2.068,0,0,0-.525-1.575,2.35,2.35,0,0,0-1.645-.49H7.105a.34.34,0,0,0-.385.385v6.02A.34.34,0,0,0,7.105-11.865Z" transform="translate(193.748 151.839)" fill="#53d38e"/>
  </g>
</svg>
