<svg xmlns="http://www.w3.org/2000/svg" width="24.866" height="20.196" viewBox="0 0 24.866 20.196">
  <path id="twitter" d="M22.31,10.292c.016.221.016.442.016.663a14.4,14.4,0,0,1-14.5,14.5A14.4,14.4,0,0,1,0,23.167a10.543,10.543,0,0,0,1.231.063,10.207,10.207,0,0,0,6.327-2.177,5.105,5.105,0,0,1-4.765-3.534,6.426,6.426,0,0,0,.963.079A5.39,5.39,0,0,0,5.1,17.424a5.1,5.1,0,0,1-4.087-5v-.063a5.133,5.133,0,0,0,2.3.647A5.1,5.1,0,0,1,1.736,6.19a14.486,14.486,0,0,0,10.508,5.333,5.753,5.753,0,0,1-.126-1.168,5.1,5.1,0,0,1,8.82-3.487,10.034,10.034,0,0,0,3.235-1.231,5.083,5.083,0,0,1-2.241,2.809,10.217,10.217,0,0,0,2.935-.789A10.955,10.955,0,0,1,22.31,10.292Z" transform="translate(0 -5.259)" fill="#3e4b62"/>
</svg>
